<svg xmlns="http://www.w3.org/2000/svg" viewBox="0 0 280 56" fill="none">
  <defs>
    <linearGradient id="dna-grad" x1="0" y1="0" x2="0" y2="1">
      <stop offset="0%" stop-color="#4CAF50"/>
      <stop offset="100%" stop-color="#2D5F3F"/>
    </linearGradient>
    <linearGradient id="bridge-grad" x1="0" y1="0" x2="1" y2="0">
      <stop offset="0%" stop-color="#2D5F3F"/>
      <stop offset="100%" stop-color="#3A7D5C"/>
    </linearGradient>
  </defs>
  <!-- DNA Helix Left Strand -->
  <path d="M8 6 C14 14, 26 14, 32 6 C26 -2, 14 -2, 8 6Z" transform="translate(0,8)" fill="url(#dna-grad)" opacity="0.9"/>
  <path d="M8 6 C14 14, 26 14, 32 6 C26 -2, 14 -2, 8 6Z" transform="translate(0,22)" fill="url(#dna-grad)" opacity="0.9"/>
  <path d="M8 6 C14 14, 26 14, 32 6 C26 -2, 14 -2, 8 6Z" transform="translate(0,36)" fill="url(#dna-grad)" opacity="0.7"/>
  <!-- Bridge Arc -->
  <path d="M6 44 Q20 24, 34 44" stroke="url(#bridge-grad)" stroke-width="3.5" fill="none" stroke-linecap="round"/>
  <!-- Bridge Pillars -->
  <rect x="8" y="40" width="3" height="12" rx="1.5" fill="#2D5F3F"/>
  <rect x="29" y="40" width="3" height="12" rx="1.5" fill="#2D5F3F"/>
  <!-- Bridge Deck -->
  <rect x="4" y="49" width="32" height="3" rx="1.5" fill="#3A7D5C"/>
  <!-- Connecting rungs -->
  <line x1="14" y1="11" x2="26" y2="11" stroke="#3A7D5C" stroke-width="1.5" stroke-linecap="round" opacity="0.5"/>
  <line x1="12" y1="18" x2="28" y2="18" stroke="#3A7D5C" stroke-width="1.5" stroke-linecap="round" opacity="0.5"/>
  <line x1="14" y1="25" x2="26" y2="25" stroke="#3A7D5C" stroke-width="1.5" stroke-linecap="round" opacity="0.5"/>
  <line x1="12" y1="32" x2="28" y2="32" stroke="#3A7D5C" stroke-width="1.5" stroke-linecap="round" opacity="0.5"/>
  <!-- Wordmark -->
  <text x="50" y="38" font-family="'Inter', 'Segoe UI', system-ui, -apple-system, sans-serif" font-size="32" font-weight="800" letter-spacing="-0.5">
    <tspan fill="#1A2E1A">Bio</tspan><tspan fill="#2D5F3F">Bridge</tspan>
  </text>
</svg>